<svg width="38" height="29" viewBox="0 0 38 29" fill="none" xmlns="http://www.w3.org/2000/svg">
<path d="M18.4962 7.52336L6.33383 17.354V27.9642C6.33383 28.2389 6.44504 28.5024 6.64298 28.6966C6.84092 28.8909 7.10938 29 7.38931 29L14.7816 28.9812C15.0606 28.9799 15.3277 28.8701 15.5245 28.676C15.7213 28.4819 15.8318 28.2192 15.8318 27.9454V21.7492C15.8318 21.4745 15.943 21.211 16.1409 21.0167C16.3389 20.8225 16.6073 20.7134 16.8873 20.7134H21.1092C21.3891 20.7134 21.6575 20.8225 21.8555 21.0167C22.0534 21.211 22.1646 21.4745 22.1646 21.7492V27.9409C22.1642 28.0772 22.1912 28.2122 22.244 28.3383C22.2969 28.4643 22.3745 28.5789 22.4726 28.6754C22.5707 28.7719 22.6872 28.8485 22.8154 28.9008C22.9437 28.953 23.0812 28.9799 23.2201 28.9799L30.6097 29C30.8897 29 31.1581 28.8909 31.3561 28.6966C31.554 28.5024 31.6652 28.2389 31.6652 27.9642V17.3469L19.5055 7.52336C19.3625 7.41028 19.1845 7.34861 19.0008 7.34861C18.8172 7.34861 18.6392 7.41028 18.4962 7.52336ZM37.7078 14.2051L32.193 9.74392V0.776872C32.193 0.570833 32.1096 0.373233 31.9611 0.227541C31.8126 0.081849 31.6113 0 31.4013 0H27.7072C27.4972 0 27.2959 0.081849 27.1474 0.227541C26.999 0.373233 26.9156 0.570833 26.9156 0.776872V5.4776L21.0095 0.708896C20.4428 0.251175 19.7316 0.000914991 18.9975 0.000914991C18.2635 0.000914991 17.5523 0.251175 16.9855 0.708896L0.287286 14.2051C0.207128 14.2701 0.140809 14.35 0.0921204 14.4402C0.0434314 14.5304 0.0133259 14.6291 0.00352407 14.7307C-0.00627773 14.8323 0.00441628 14.9348 0.0349951 15.0324C0.0655738 15.1299 0.115438 15.2206 0.181739 15.2992L1.8639 17.3061C1.93002 17.385 2.01135 17.4504 2.10323 17.4984C2.19511 17.5464 2.29574 17.5762 2.39935 17.586C2.50297 17.5958 2.60753 17.5854 2.70707 17.5555C2.8066 17.5256 2.89915 17.4767 2.97941 17.4117L18.4962 4.86905C18.6392 4.75596 18.8172 4.6943 19.0008 4.6943C19.1845 4.6943 19.3625 4.75596 19.5055 4.86905L35.0229 17.4117C35.1031 17.4767 35.1955 17.5257 35.2949 17.5557C35.3943 17.5857 35.4987 17.5962 35.6022 17.5866C35.7058 17.5769 35.8064 17.5474 35.8983 17.4996C35.9901 17.4518 36.0715 17.3867 36.1378 17.3081L37.82 15.3011C37.8862 15.2221 37.9358 15.1309 37.9661 15.0329C37.9963 14.935 38.0065 14.8321 37.996 14.7303C37.9856 14.6284 37.9548 14.5296 37.9053 14.4395C37.8559 14.3493 37.7887 14.2697 37.7078 14.2051Z" fill="#3F3D56"/>
</svg>
