<svg width="375" height="812" viewBox="0 0 375 812" fill="none" xmlns="http://www.w3.org/2000/svg">
<g clip-path="url(#clip0_1_2)">
<rect width="375" height="812" fill="url(#paint0_linear_1_2)"/>
<path d="M375 70L409.641 130H340.359L375 70Z" fill="#9E606F" fill-opacity="0.21"/>
<path d="M382 110L416.641 170H347.359L382 110Z" fill="#9E606F" fill-opacity="0.21"/>
<path d="M389 150L423.641 210H354.359L389 150Z" fill="#9E606F" fill-opacity="0.21"/>
<path d="M335 90L369.641 150H300.359L335 90Z" fill="#9E606F" fill-opacity="0.21"/>
<path d="M342 130L376.641 190H307.359L342 130Z" fill="#9E606F" fill-opacity="0.21"/>
<path d="M349 170L383.641 230H314.359L349 170Z" fill="#9E606F" fill-opacity="0.21"/>
<path d="M-5 -16L29.641 44H-39.641L-5 -16Z" fill="#9E606F" fill-opacity="0.21"/>
<path d="M2 24L36.641 84H-32.641L2 24Z" fill="#9E606F" fill-opacity="0.21"/>
<path d="M10 64L44.641 124H-24.641L10 64Z" fill="#9E606F" fill-opacity="0.21"/>
<path d="M397 703L431.641 763H362.359L397 703Z" fill="#9E606F" fill-opacity="0.21"/>
<path d="M405 743L439.641 803H370.359L405 743Z" fill="#9E606F" fill-opacity="0.21"/>
<path d="M357 723L391.641 783H322.359L357 723Z" fill="#9E606F" fill-opacity="0.21"/>
<path d="M365 763L399.641 823H330.359L365 763Z" fill="#9E606F" fill-opacity="0.21"/>
<path d="M6 473L-28.641 533H40.641L6 473Z" fill="#9E606F" fill-opacity="0.21"/>
<path d="M0 513L-34.641 573H34.641L0 513Z" fill="#9E606F" fill-opacity="0.21"/>
<path d="M-6 553L-40.641 613H28.641L-6 553Z" fill="#9E606F" fill-opacity="0.21"/>
<path d="M42 493L7.35898 553H76.641L42 493Z" fill="#9E606F" fill-opacity="0.21"/>
<path d="M36 533L1.35898 593H70.641L36 533Z" fill="#9E606F" fill-opacity="0.21"/>
<path d="M29 573L-5.64102 633H63.641L29 573Z" fill="#9E606F" fill-opacity="0.21"/>
<path d="M322 779L356.641 839H287.359L322 779Z" fill="#9E606F" fill-opacity="0.21"/>
</g>
<defs>
<linearGradient id="paint0_linear_1_2" x1="187.5" y1="0" x2="187.5" y2="812" gradientUnits="userSpaceOnUse">
<stop stop-color="#E1AA96"/>
<stop offset="1" stop-color="#E1AA96" stop-opacity="0"/>
</linearGradient>
<clipPath id="clip0_1_2">
<rect width="375" height="812" fill="white"/>
</clipPath>
</defs>
</svg>
