<svg width="188" height="100" viewBox="0 0 188 100" fill="none" xmlns="http://www.w3.org/2000/svg">
<g clip-path="url(#clip0_4_35)">
<path d="M61.9122 99.9999C56.2394 99.9999 50.5751 99.8921 44.9193 99.6766C36.8379 99.3686 28.4813 99.0503 20.7141 94.4793C15.2806 91.2819 10.4685 86.1521 6.79796 79.644C4.34464 75.2328 2.54577 70.4473 1.46452 65.4555C-0.552436 56.3672 -0.483736 46.8979 1.66484 37.8436C2.41778 34.7392 3.45577 31.7207 4.7639 28.8313C10.4282 16.3852 20.7594 8.03054 33.1086 5.90959C33.2106 5.89555 33.3137 5.89321 33.4162 5.90262C33.4718 5.90578 33.5271 5.90916 33.5836 5.90665L33.6562 5.88215C33.8425 5.81346 34.0338 5.76136 34.2282 5.72639C53.274 2.71783 73.4081 8.80519 92.4525 23.3299C107.178 34.5619 126.693 40.6102 152.112 41.8203L152.473 41.8404C159.55 42.2717 166.395 45.3673 172.269 50.7929C178.067 56.148 182.42 63.2927 184.858 71.4549C185.158 72.4501 185.433 73.4859 185.675 74.5335C185.9 75.5072 185.885 76.5261 185.629 77.4913C185.373 78.4564 184.886 79.3349 184.216 80.0413V80.0433L184.153 80.1123C184 80.2731 183.84 80.4273 183.676 80.5709L183.483 80.7395C181.859 82.1594 180.576 83.2811 179.04 84.1523C178.016 84.7294 176.926 85.1657 175.798 85.4509C169.604 87.0533 163.313 88.539 157.101 89.867C145.037 92.448 132.655 94.5773 120.299 96.1952C100.929 98.7296 81.4295 100 61.9122 99.9999V99.9999ZM33.2718 6.34343C33.2338 6.34306 33.1959 6.34579 33.1584 6.3516C20.9246 8.45272 10.6912 16.7254 5.08306 29.0483C3.78784 31.909 2.76013 34.8976 2.01467 37.9712C-0.114324 46.9452 -0.18217 56.3304 1.81684 65.3381C2.88751 70.2821 4.66894 75.0219 7.09858 79.3908C10.7332 85.8351 15.4961 90.9136 20.8726 94.0771C28.5701 98.6072 36.8873 98.9242 44.9307 99.2305C70.0877 100.184 95.2764 99.021 120.26 95.7517C132.608 94.1346 144.982 92.0069 157.038 89.4274C163.246 88.1005 169.532 86.6159 175.723 85.0143C176.824 84.7363 177.887 84.3107 178.886 83.7475C180.391 82.894 181.662 81.783 183.271 80.3766L183.463 80.2082C183.604 80.0847 183.743 79.9527 183.875 79.8154L183.913 79.7732C185.235 78.3591 185.749 76.4935 185.324 74.6549V74.6546C185.084 73.6181 184.812 72.5934 184.516 71.6085C179.535 54.9346 166.651 43.1511 152.456 42.2861L152.097 42.266C140.485 41.7131 130.325 40.1817 121.035 37.5837C109.945 34.4824 100.264 29.814 92.2591 23.7083C73.2873 9.23925 53.2373 3.17454 34.2747 6.16883C34.0976 6.20125 33.9233 6.24919 33.7536 6.31217L33.6227 6.35105C33.5483 6.35459 33.4737 6.35364 33.3994 6.34822C33.3557 6.34583 33.3132 6.34343 33.2718 6.34343H33.2718Z" fill="#F0F0F0"/>
<path d="M58.7235 32.5812C58.1984 32.0466 57.6612 29.0652 56.9908 28.7625C57.4919 29.9378 57.128 30.249 57.1254 31.5389C57.1317 32.2713 57.0511 33.0016 56.8854 33.7126H45.5278V24.3074C45.5278 23.4624 45.6847 22.6256 45.9894 21.8448C46.2942 21.064 46.7409 20.3546 47.3041 19.7571C47.8672 19.1595 48.5358 18.6855 49.2716 18.3621C50.0075 18.0387 50.7961 17.8723 51.5925 17.8723C51.8965 17.8786 52.1985 17.9255 52.4914 18.012C53.4677 18.2916 54.3574 18.8388 55.0715 19.5985C55.7855 20.3582 56.2987 21.3038 56.5596 22.3404C57.4254 25.6985 58.8024 31.2883 58.7235 32.5812Z" fill="#2F2E41"/>
<path d="M46.1943 44.1514L46.1999 36.8206L42.1387 37.2056L43.572 41.8292L42.9012 53.4505C42.5758 53.528 42.2788 53.7042 42.0462 53.9577C41.8136 54.2112 41.6556 54.5311 41.5914 54.8783C41.5272 55.2254 41.5595 55.5849 41.6845 55.9129C41.8095 56.2409 42.0218 56.5232 42.2954 56.7254C42.569 56.9276 42.8921 57.041 43.2254 57.0517C43.5587 57.0624 43.8877 56.97 44.1723 56.7857C44.4569 56.6015 44.6849 56.3333 44.8284 56.0139C44.9718 55.6946 45.0246 55.3378 44.9803 54.9872L46.1943 44.1514Z" fill="#FFB6B6"/>
<path d="M54.1865 96.5375L55.8271 96.5372L56.6077 89.8223H54.186L54.1865 96.5375Z" fill="#FFB6B6"/>
<path d="M53.6309 95.6784L56.2245 95.5142V96.6933L58.6904 98.5003C58.8122 98.5895 58.9039 98.7177 58.9522 98.8662C59.0004 99.0147 59.0027 99.1756 58.9587 99.3256C58.9146 99.4755 58.8265 99.6066 58.7073 99.6996C58.5881 99.7927 58.444 99.8429 58.296 99.8429H55.2081L54.6759 98.6766L54.4681 99.8429H53.3038L53.6309 95.6784Z" fill="#2F2E41"/>
<path d="M44.6995 96.5375L46.3404 96.5372L47.1208 89.8223H44.6993L44.6995 96.5375Z" fill="#FFB6B6"/>
<path d="M44.1441 95.6784L46.7377 95.5142V96.6933L49.2036 98.5003C49.3254 98.5895 49.4171 98.7177 49.4654 98.8662C49.5136 99.0147 49.5159 99.1756 49.4718 99.3256C49.4278 99.4755 49.3397 99.6066 49.2205 99.6996C49.1013 99.7927 48.9571 99.8429 48.8091 99.8429H45.7213L45.1891 98.6766L44.9813 99.8429H43.817L44.1441 95.6784Z" fill="#2F2E41"/>
<path d="M52.7254 28.9041L49.3265 28.9748L46.9273 31.662L45.0038 31.9613C44.1337 32.0967 43.3338 32.5449 42.7377 33.231C42.1417 33.9171 41.7856 34.7994 41.729 35.7306L42.0622 37.6728H44.0616L45.2182 44.8787C44.7685 46.0947 44.7379 47.0546 45.661 47.4316L48.5268 53.1596L56.9907 49.1288C57.4199 48.3458 57.5575 47.5593 57.1187 46.7945L57.7238 35.7635H59.7583C59.7583 33.7003 59.1006 31.961 57.1683 31.7315C56.4009 31.6433 55.6299 31.5965 54.858 31.5913L52.7254 28.9041Z" fill="#E6E6E6"/>
<path d="M56.9907 49.1286C56.9907 49.1286 48.7267 50.6843 45.661 47.4314C45.661 47.4314 45.3498 47.9921 44.8808 48.9219C44.746 49.1893 44.4855 49.3704 44.3282 49.6943C44.1852 49.9887 43.8175 50.3506 43.6617 50.6844C43.5364 50.953 43.7374 51.304 43.607 51.5942C42.0371 55.0883 40.2028 60.0171 40.596 63.2717C40.8496 65.3706 41.3734 70.2543 41.925 75.4998C41.9681 75.9096 41.619 76.4361 41.6624 76.8492C41.7032 77.2387 42.1365 77.5147 42.1773 77.9052C42.2044 78.1644 41.9019 78.4289 41.9289 78.6878C41.9586 78.9718 42.3179 79.2503 42.3474 79.5333C43.1031 86.7761 43.795 93.5381 43.795 93.5381H47.6604L48.3897 78.0943L47.7937 72.4648L49.1932 61.0796L51.1259 71.8991L51.3746 77.9884L53.4171 93.821H56.9907V78.494L57.2573 77.6978L56.9907 76.6766L57.2573 75.5763L56.9907 74.378V49.1286Z" fill="#2F2E41"/>
<path d="M53.7686 26.8126C53.2421 27.5547 52.4931 28.0844 51.645 28.3146C50.7969 28.5447 49.9001 28.4614 49.1025 28.0785C48.305 27.6956 47.654 27.0359 47.257 26.2081C46.8599 25.3802 46.7404 24.4336 46.9181 23.524C47.0958 22.6145 47.5602 21.7962 48.2347 21.2041C48.9092 20.612 49.7537 20.2813 50.629 20.2664C51.5043 20.2515 52.3583 20.5534 53.0503 21.1223C53.7423 21.6913 54.2311 22.4933 54.4361 23.3963C54.4472 23.4453 54.4566 23.4941 54.4657 23.5446C54.574 24.1107 54.5678 24.6947 54.4477 25.258C54.3275 25.8213 54.0961 26.3512 53.7686 26.8126V26.8126Z" fill="#FFB6B6"/>
<path d="M52.9654 24.4801C52.8836 24.0449 52.6769 23.6471 52.3736 23.3416C52.4035 23.7587 52.349 24.1777 52.2136 24.5706C51.2003 24.6658 50.1825 24.4519 49.2799 23.954C48.6001 23.4646 47.7351 23.5071 46.7274 23.954C46.7274 23.4339 46.8238 22.9189 47.0114 22.4384C47.1989 21.958 47.4738 21.5214 47.8204 21.1536C48.167 20.7859 48.5784 20.4942 49.0312 20.2952C49.4841 20.0962 49.9694 19.9938 50.4595 19.9939H51.126C52.1157 19.9941 53.0649 20.4114 53.7648 21.154C54.4647 21.8966 54.8579 22.9038 54.8581 23.954C54.243 24.1881 53.6096 24.3641 52.9654 24.4801V24.4801Z" fill="#2F2E41"/>
<path d="M23.8086 74.9527C29.7301 74.9527 34.5305 69.8592 34.5305 63.576C34.5305 57.2928 29.7301 52.1992 23.8086 52.1992C17.8871 52.1992 13.0868 57.2928 13.0868 63.576C13.0868 69.8592 17.8871 74.9527 23.8086 74.9527Z" fill="#F0F0F0"/>
<path d="M92.1341 22.7535C98.0556 22.7535 102.856 17.66 102.856 11.3768C102.856 5.09355 98.0556 0 92.1341 0C86.2126 0 81.4122 5.09355 81.4122 11.3768C81.4122 17.66 86.2126 22.7535 92.1341 22.7535Z" fill="#F0F0F0"/>
<path d="M177.278 76.7374C183.2 76.7374 188 71.6439 188 65.3606C188 59.0774 183.2 53.9839 177.278 53.9839C171.357 53.9839 166.556 59.0774 166.556 65.3606C166.556 71.6439 171.357 76.7374 177.278 76.7374Z" fill="#F0F0F0"/>
<path d="M111.475 12.6175V38.4151C111.475 38.9509 111.276 39.4652 110.921 39.8461C110.566 40.227 110.083 40.4438 109.578 40.4493C109.571 40.4501 109.564 40.4504 109.557 40.4503H106.728C104.464 40.4503 102.292 39.4959 100.691 37.7972C99.0903 36.0984 98.1909 33.7944 98.1909 31.392V12.6175C98.1909 12.0777 98.393 11.56 98.7527 11.1784C99.1124 10.7967 99.6002 10.5823 100.109 10.5823H101.256C100.724 12.2265 107.934 12.9187 108.329 10.5823H109.557C110.066 10.5823 110.554 10.7967 110.914 11.1784C111.273 11.56 111.475 12.0777 111.475 12.6175V12.6175Z" fill="#2F2E41"/>
<path d="M103.078 8.65319C103.078 8.58248 103.105 8.51469 103.152 8.46469C103.199 8.41469 103.263 8.38656 103.329 8.38647H105.039C105.105 8.38668 105.169 8.41487 105.216 8.46486C105.263 8.51486 105.289 8.58259 105.289 8.65319C105.289 8.7238 105.263 8.79152 105.216 8.84152C105.169 8.89152 105.105 8.91971 105.039 8.91991H103.329C103.263 8.91983 103.199 8.8917 103.152 8.8417C103.105 8.7917 103.078 8.7239 103.078 8.65319V8.65319Z" fill="#3F3D56"/>
<path d="M110.145 43.7223H99.3354C98.4967 43.7213 97.6927 43.3674 97.0997 42.7382C96.5067 42.109 96.1731 41.2559 96.1721 40.366V22.3324C96.1128 22.2872 96.0645 22.2276 96.0311 22.1586C95.9978 22.0896 95.9805 22.0132 95.9806 21.9356V20.122C95.9805 20.0444 95.9978 19.968 96.0311 19.899C96.0645 19.83 96.1128 19.7705 96.1721 19.7253V19.2385C96.1128 19.1933 96.0645 19.1337 96.0311 19.0647C95.9978 18.9957 95.9805 18.9193 95.9806 18.8418V17.028C95.9805 16.9505 95.9978 16.8741 96.0311 16.8051C96.0645 16.7361 96.1128 16.6765 96.1721 16.6313V15.7515C96.0989 15.7098 96.0376 15.6477 95.995 15.5718C95.9524 15.496 95.9301 15.4093 95.9303 15.3211V13.5074C95.9301 13.4191 95.9524 13.3324 95.995 13.2566C96.0376 13.1807 96.0989 13.1186 96.1721 13.0768V10.6661C96.1731 9.77629 96.5067 8.92317 97.0997 8.29396C97.6927 7.66474 98.4967 7.31081 99.3354 7.30981H110.145C110.983 7.31082 111.787 7.66475 112.38 8.29397C112.973 8.92319 113.307 9.77631 113.308 10.6662V15.9209C113.365 15.9587 113.412 16.0113 113.444 16.0736C113.477 16.136 113.494 16.2061 113.494 16.2774V19.7357C113.494 19.807 113.477 19.8772 113.444 19.9395C113.412 20.0019 113.365 20.0545 113.308 20.0923V40.366C113.307 41.2558 112.973 42.109 112.38 42.7382C111.787 43.3674 110.983 43.7213 110.145 43.7223V43.7223ZM99.3354 7.75596C98.6082 7.75682 97.9111 8.06371 97.3969 8.60929C96.8827 9.15487 96.5934 9.89458 96.5926 10.6662V13.4563L96.3904 13.4646C96.3799 13.465 96.3699 13.4697 96.3625 13.4776C96.3552 13.4856 96.3509 13.4962 96.3508 13.5074V15.3211C96.351 15.3322 96.3552 15.3429 96.3626 15.3508C96.3699 15.3588 96.3799 15.3634 96.3904 15.3639L96.5926 15.372V16.9446L96.4327 16.9864C96.4238 16.9886 96.4159 16.994 96.4102 17.0015C96.4045 17.009 96.4013 17.0183 96.4011 17.028V18.8418C96.4013 18.8514 96.4045 18.8608 96.4102 18.8683C96.4159 18.8758 96.4238 18.8811 96.4327 18.8834L96.5926 18.9252V20.0385L96.4327 20.0803C96.4238 20.0826 96.4159 20.0879 96.4102 20.0954C96.4045 20.103 96.4013 20.1123 96.4011 20.1219V21.9356C96.4012 21.9453 96.4045 21.9546 96.4102 21.9622C96.4159 21.9697 96.4238 21.9751 96.4327 21.9773L96.5926 22.0192V40.366C96.5934 41.1376 96.8827 41.8773 97.3969 42.4229C97.9111 42.9685 98.6082 43.2753 99.3354 43.2762H110.145C110.872 43.2753 111.569 42.9684 112.083 42.4228C112.597 41.8773 112.887 41.1376 112.887 40.366V19.7103H113.074V16.3029H112.887V10.6661C112.887 9.89459 112.597 9.15488 112.083 8.6093C111.569 8.06373 110.872 7.75684 110.145 7.75596L99.3354 7.75596Z" fill="#3F3D56"/>
<path d="M105.994 8.91991C106.133 8.91991 106.245 8.8005 106.245 8.65319C106.245 8.50589 106.133 8.38647 105.994 8.38647C105.855 8.38647 105.743 8.50589 105.743 8.65319C105.743 8.8005 105.855 8.91991 105.994 8.91991Z" fill="#3F3D56"/>
<path d="M51.3135 60.3197H23.1872C22.7877 60.3186 22.405 60.1498 22.1225 59.8501C21.84 59.5504 21.6809 59.1443 21.6798 58.7205V44.1785C21.6808 43.7547 21.8399 43.3486 22.1224 43.0488C22.4048 42.7491 22.7875 42.5802 23.187 42.5791H51.3133C51.7127 42.5802 52.0955 42.749 52.378 43.0487C52.6604 43.3484 52.8196 43.7545 52.8207 44.1783V58.7203C52.8196 59.1441 52.6605 59.5502 52.3781 59.8499C52.0957 60.1497 51.7129 60.3185 51.3135 60.3197Z" fill="white"/>
<path d="M51.3135 60.3197H23.1872C22.7877 60.3186 22.405 60.1498 22.1225 59.8501C21.84 59.5504 21.6809 59.1443 21.6798 58.7205V44.1785C21.6808 43.7547 21.8399 43.3486 22.1224 43.0488C22.4048 42.7491 22.7875 42.5802 23.187 42.5791H51.3133C51.7127 42.5802 52.0955 42.749 52.378 43.0487C52.6604 43.3484 52.8196 43.7545 52.8207 44.1783V58.7203C52.8196 59.1441 52.6605 59.5502 52.3781 59.8499C52.0957 60.1497 51.7129 60.3185 51.3135 60.3197ZM23.1872 43.0253C22.8991 43.0262 22.6231 43.148 22.4195 43.3641C22.2158 43.5803 22.1011 43.8731 22.1003 44.1787V58.7203C22.1011 59.0259 22.2159 59.3188 22.4196 59.5348C22.6233 59.7509 22.8993 59.8727 23.1874 59.8735H51.3131C51.6012 59.8727 51.8772 59.7509 52.0809 59.5348C52.2846 59.3186 52.3994 59.0257 52.4002 58.72V44.1785C52.3994 43.8729 52.2845 43.5801 52.0809 43.364C51.8772 43.1479 51.6011 43.0261 51.3131 43.0253L23.1872 43.0253Z" fill="#3F3D56"/>
<path d="M38.7578 58.1707C33.2107 58.1707 27.4265 58.1145 25.2684 58.078C24.9845 58.0718 24.7141 57.948 24.5149 57.7332C24.3158 57.5183 24.2037 57.2294 24.2026 56.928V44.8906C24.2027 44.7827 24.2431 44.6792 24.315 44.6028C24.3868 44.5264 24.4842 44.4833 24.5859 44.4829H49.9138C50.0155 44.483 50.1129 44.5259 50.1849 44.6021C50.2569 44.6783 50.2976 44.7816 50.2979 44.8895V53.0567C50.2932 54.3899 49.7962 55.668 48.9136 56.6168C48.031 57.5657 46.833 58.1097 45.5768 58.1321C43.5654 58.1599 41.1837 58.1707 38.7578 58.1707Z" fill="#2F2E41"/>
<path d="M48.4103 52.3064H25.5245C25.3329 52.3058 25.1461 52.2427 24.9895 52.1255C24.8328 52.0084 24.714 51.8429 24.6491 51.6516L22.0588 43.9407C22.0089 43.792 21.9933 43.6327 22.0134 43.4763C22.0335 43.3199 22.0887 43.1709 22.1744 43.0418C22.26 42.9127 22.3736 42.8073 22.5056 42.7344C22.6376 42.6616 22.7841 42.6234 22.9329 42.6231L51.5396 42.5808C51.6756 42.5807 51.81 42.6122 51.9333 42.6731C52.0565 42.734 52.1657 42.8229 52.2531 42.9334C52.3405 43.044 52.4039 43.1735 52.439 43.3129C52.4741 43.4524 52.4799 43.5982 52.4561 43.7403L52.4782 43.7502L52.3961 43.9536L52.3953 43.9556L49.2638 51.7086C49.1925 51.8861 49.0735 52.0374 48.9218 52.1437C48.77 52.25 48.5921 52.3066 48.4103 52.3064V52.3064ZM51.541 43.027L22.9337 43.0692C22.8522 43.0694 22.7719 43.0903 22.6996 43.1302C22.6273 43.1701 22.5651 43.2278 22.5181 43.2985C22.4712 43.3692 22.441 43.4509 22.43 43.5365C22.4189 43.6222 22.4275 43.7095 22.4548 43.7909L25.045 51.5015C25.0806 51.6063 25.1458 51.697 25.2316 51.7611C25.3175 51.8253 25.4198 51.8599 25.5248 51.8603H48.4103C48.5098 51.8603 48.6071 51.8294 48.6902 51.7712C48.7732 51.713 48.8383 51.6302 48.8773 51.5331L52.0089 43.7798L52.1628 43.8499L52.0089 43.7798C52.042 43.6977 52.0555 43.6081 52.048 43.519C52.0405 43.43 52.0123 43.3443 51.966 43.2697C51.9196 43.1951 51.8565 43.1339 51.7823 43.0915C51.7081 43.0491 51.6252 43.027 51.541 43.027V43.027Z" fill="#3F3D56"/>
<path d="M37.2076 53.9849C38.1973 53.9849 38.9996 53.1335 38.9996 52.0834C38.9996 51.0332 38.1973 50.1819 37.2076 50.1819C36.2178 50.1819 35.4155 51.0332 35.4155 52.0834C35.4155 53.1335 36.2178 53.9849 37.2076 53.9849Z" fill="white"/>
<path d="M104.902 37.4773C105.892 37.4773 106.694 36.626 106.694 35.5758C106.694 34.5256 105.892 33.6743 104.902 33.6743C103.913 33.6743 103.11 34.5256 103.11 35.5758C103.11 36.626 103.913 37.4773 104.902 37.4773Z" fill="white"/>
<path d="M172.68 63.1567L167.893 58.142C167.66 57.8959 167.384 57.7011 167.08 57.5687C166.776 57.4362 166.45 57.3687 166.121 57.3701H166.104C165.773 57.3712 165.445 57.4419 165.14 57.5782C164.835 57.7145 164.558 57.9137 164.326 58.1643C163.255 59.3137 162.647 60.8586 162.627 62.4743C162.608 64.0901 163.18 65.6508 164.223 66.8285C164.273 66.8865 164.326 66.9422 164.378 66.998C164.669 67.3051 164.991 67.578 165.337 67.8122C166.283 68.461 167.387 68.8043 168.514 68.8004H168.549C169.323 68.7976 170.088 68.6322 170.801 68.3136C171.513 67.995 172.159 67.5297 172.701 66.9445C173.171 66.4388 173.433 65.756 173.429 65.046C173.425 64.3359 173.156 63.6565 172.68 63.1567V63.1567ZM172.403 66.6299C171.514 67.58 170.344 68.1759 169.089 68.3173C167.835 68.4587 166.573 68.1369 165.516 67.4062C165.213 67.1939 164.931 66.9511 164.673 66.6812C163.641 65.6003 163.057 64.1289 163.048 62.5906C163.038 61.0524 163.606 59.5734 164.624 58.4788C164.818 58.2694 165.049 58.103 165.304 57.9893C165.558 57.8756 165.832 57.8167 166.109 57.8163H166.121C166.395 57.8153 166.666 57.8715 166.919 57.9817C167.173 58.0919 167.403 58.254 167.597 58.4587L172.384 63.4757C172.78 63.8915 173.005 64.4573 173.008 65.0486C173.012 65.64 172.794 66.2087 172.403 66.6299V66.6299Z" fill="#3F3D56"/>
<path d="M156.974 46.6982L152.187 41.6813C151.716 41.1852 151.078 40.9077 150.415 40.9094H150.4C150.068 40.9108 149.74 40.9819 149.435 41.1186C149.129 41.2553 148.852 41.4549 148.619 41.7058C147.734 42.6594 147.161 43.8886 146.982 45.2133C146.804 46.5381 147.03 47.8887 147.627 49.0672L147.629 49.0695C147.876 49.5515 148.182 49.9964 148.539 50.3923C148.579 50.4414 148.626 50.4904 148.672 50.5395C149.771 51.6974 151.258 52.3455 152.807 52.3419H152.845C153.618 52.3385 154.384 52.1725 155.096 51.8536C155.809 51.5347 156.455 51.0691 156.997 50.4837C157.23 50.2336 157.414 49.9372 157.539 49.6116C157.663 49.2859 157.727 48.9374 157.724 48.5859C157.722 48.2343 157.655 47.8867 157.526 47.5628C157.397 47.2389 157.21 46.9451 156.974 46.6982V46.6982ZM156.696 50.1715C156.193 50.7146 155.594 51.1467 154.932 51.4426C154.271 51.7386 153.561 51.8926 152.843 51.8958H152.807C151.729 51.8954 150.675 51.5567 149.778 50.9224C148.881 50.2882 148.181 49.3866 147.765 48.3311C147.35 47.2756 147.238 46.1134 147.443 44.9905C147.649 43.8676 148.162 42.8342 148.92 42.0203C149.312 41.5999 149.845 41.3616 150.402 41.3579C150.96 41.3541 151.496 41.5851 151.893 42.0003L156.68 47.015C157.076 47.4316 157.3 47.9978 157.303 48.5895C157.306 49.1812 157.088 49.7501 156.696 50.1715L156.696 50.1715Z" fill="#3F3D56"/>
<path d="M172.986 64.7333L167.709 59.2025C167.363 58.8406 166.896 58.6392 166.41 58.6424C165.924 58.6456 165.459 58.8531 165.117 59.2195C164.69 59.6779 164.351 60.2212 164.122 60.8183C163.892 61.4155 163.776 62.0548 163.779 62.6998C163.783 63.3447 163.906 63.9826 164.142 64.5769C164.378 65.1713 164.722 65.7105 165.154 66.1637C165.587 66.6169 166.099 66.9752 166.662 67.2182C167.225 67.4611 167.828 67.5839 168.436 67.5795C169.043 67.5752 169.644 67.4437 170.204 67.1927C170.764 66.9417 171.272 66.5761 171.699 66.1167L172.986 64.7333Z" fill="#2F2E41"/>
<path d="M157.281 48.274L152.003 42.7432C151.657 42.3814 151.19 42.1799 150.704 42.1831C150.218 42.1863 149.753 42.3939 149.412 42.7603C148.984 43.2187 148.646 43.762 148.416 44.3591C148.187 44.9563 148.07 45.5956 148.074 46.2405C148.077 46.8854 148.2 47.5233 148.436 48.1177C148.672 48.7121 149.016 49.2513 149.449 49.7045C149.881 50.1577 150.393 50.516 150.957 50.7589C151.52 51.0019 152.122 51.1247 152.73 51.1203C153.338 51.1159 153.939 50.9845 154.499 50.7335C155.059 50.4825 155.566 50.1169 155.993 49.6575L157.281 48.274Z" fill="#2F2E41"/>
<path d="M167.187 68.1782L167.061 68.5306C166.468 68.2919 165.893 68.0525 165.337 67.8123C155.481 63.5449 150.776 58.5503 147.629 49.0696L147.627 49.0674C147.478 48.6213 147.333 48.1647 147.192 47.6978L147.524 47.584C147.635 48.0331 147.797 48.4661 148.007 48.8734C148.18 49.3931 148.357 49.8995 148.539 50.3925C151.497 58.3941 155.86 62.9671 164.223 66.8286C164.643 67.0226 165.074 67.2152 165.516 67.4063C166.028 67.7607 166.593 68.0216 167.187 68.1782V68.1782Z" fill="#3F3D56"/>
<path d="M152.099 51.9359L151.804 52.2534L162.723 63.6966L163.018 63.3791L152.099 51.9359Z" fill="#3F3D56"/>
<path d="M59.6566 42.4541L59.6621 35.1233L55.601 35.5084L57.0342 40.1319L51.8316 48.5003C51.5063 48.5778 51.2092 48.754 50.9766 49.0075C50.744 49.261 50.586 49.5809 50.5218 49.9281C50.4576 50.2752 50.4899 50.6347 50.6149 50.9627C50.7399 51.2907 50.9522 51.573 51.2258 51.7752C51.4994 51.9774 51.8225 52.0908 52.1558 52.1015C52.4891 52.1122 52.8181 52.0198 53.1027 51.8355C53.3873 51.6513 53.6153 51.3831 53.7588 51.0637C53.9022 50.7444 53.9551 50.3876 53.9108 50.037L59.6566 42.4541Z" fill="#FFB6B6"/>
</g>
<defs>
<clipPath id="clip0_4_35">
<rect width="188" height="100" fill="white"/>
</clipPath>
</defs>
</svg>
