<svg width="139" height="105" viewBox="0 0 139 105" fill="none" xmlns="http://www.w3.org/2000/svg">
<g clip-path="url(#clip0_4_5)">
<path d="M55.6228 10.128C53.9293 13.0324 57.1182 17.9261 53.9043 18.9423L54.1691 18.6787C56.1091 16.3032 52.0543 11.2752 53.9942 8.89965C54.2957 8.55118 54.5544 8.16829 54.765 7.75903" fill="#2F2E41"/>
<path d="M71.4827 52.7375C71.5382 52.4468 71.529 52.1476 71.4558 51.8609C71.3827 51.5741 71.2472 51.3069 71.059 51.0779C70.8708 50.8489 70.6345 50.6638 70.3667 50.5356C70.0989 50.4073 69.8061 50.3391 69.5089 50.3358L65.3228 38.2283L63.0057 41.1685L67.4317 52.4816C67.4591 52.9789 67.6688 53.449 68.021 53.8027C68.3733 54.1564 68.8437 54.3692 69.343 54.4008C69.8423 54.4323 70.336 54.2804 70.7303 53.9738C71.1247 53.6673 71.3923 53.2274 71.4827 52.7375L71.4827 52.7375Z" fill="#FFB8B8"/>
<path d="M53.0817 23.5053C53.0817 23.5053 52.9514 19.1225 56.8883 21.6332C60.8251 24.1439 69.3967 47.6631 69.3967 47.6631L65.1311 49.9606L55.4477 28.4379L53.0817 23.5053Z" fill="#2F2E41"/>
<path d="M64.6965 98.6227L62.7306 99.4589L58.5548 92.3084L61.4564 91.074L64.6965 98.6227Z" fill="#FFB6B6"/>
<path d="M67.1894 101.572L65.7797 102.172L64.9593 100.954L64.8835 102.553L61.1445 104.144C60.9652 104.22 60.7662 104.237 60.5765 104.193C60.3867 104.148 60.2162 104.045 60.0897 103.897C59.9633 103.75 59.8875 103.566 59.8736 103.372C59.8596 103.178 59.9082 102.986 60.0121 102.821L62.1168 99.4983L61.5419 98.1587L64.7626 97.0093L67.1894 101.572Z" fill="#2F2E41"/>
<path d="M33.8797 101.048L31.7445 100.944L31.1307 92.6958L34.2823 92.8491L33.8797 101.048Z" fill="#FFB6B6"/>
<path d="M34.8259 104.786L33.2946 104.711L33.0919 103.259L32.3213 104.664L28.26 104.466C28.0653 104.457 27.8788 104.386 27.7276 104.263C27.5764 104.141 27.4685 103.973 27.4197 103.786C27.3708 103.598 27.3836 103.399 27.456 103.219C27.5285 103.039 27.6569 102.887 27.8225 102.784L31.1752 100.712L31.2467 99.2573L34.648 99.626L34.8259 104.786Z" fill="#2F2E41"/>
<path d="M96.7931 99.7337C96.9346 99.7389 97.0742 99.7006 97.193 99.6241C97.3119 99.5476 97.4042 99.4366 97.4576 99.3061C97.5109 99.1756 97.5227 99.0319 97.4913 98.8945C97.4599 98.7571 97.3868 98.6327 97.282 98.538C97.2639 98.4693 97.2509 98.42 97.2329 98.3513C97.3649 98.0078 97.5969 97.7115 97.8993 97.5002C98.2016 97.2889 98.5604 97.1723 98.9297 97.1653C99.299 97.1583 99.662 97.2613 99.9722 97.4611C100.282 97.6608 100.525 97.9482 100.67 98.2864C101.507 100.185 102.584 102.148 102.078 104.253C105.486 96.8818 104.215 87.7654 99.0157 81.539C97.5876 80.7733 96.4228 79.4 96.1077 77.7956C96.8131 78.0261 97.6842 77.4484 97.1485 76.7162C96.9167 76.4365 96.6826 76.1591 96.4508 75.8795C99.0946 73.0225 102.319 77.4428 99.4162 81.2926C100.389 82.4839 101.235 83.7731 101.939 85.1394C101.765 83.6832 101.942 82.2067 102.453 80.8316C102.973 79.5496 103.959 78.4647 104.826 77.3524C105.88 75.9972 108.082 76.5969 108.242 78.3025C107.261 78.6341 107.146 80.0515 108.275 80.2346C108.01 83.4129 105.954 86.3509 103.097 87.7707C104.185 90.7213 104.629 93.8689 104.4 97.0037C104.871 93.3381 108.81 92.4123 111.555 90.9312C111.73 90.8174 111.934 90.7566 112.142 90.7563C112.351 90.756 112.555 90.8161 112.73 90.9294C112.905 91.0426 113.043 91.2041 113.127 91.3941C113.211 91.5841 113.238 91.7944 113.204 91.9993C112.825 92.1571 112.462 92.3519 112.122 92.5811C111.962 92.6901 111.84 92.8456 111.773 93.0263C111.706 93.2069 111.696 93.4039 111.746 93.5902C111.795 93.7764 111.901 93.9429 112.05 94.0667C112.198 94.1906 112.381 94.2657 112.574 94.2819C111.216 97.7216 107.643 100.057 103.95 100.079C103.609 101.617 103.109 103.116 102.458 104.552L96.9771 104.604C96.9568 104.544 96.9385 104.481 96.9203 104.421C97.4279 104.448 97.9369 104.413 98.436 104.316C97.0786 102.747 96.0329 101.95 96.793 99.7338L96.7931 99.7337Z" fill="#F2F2F2"/>
<path d="M39.2737 47.4298C39.2737 47.4298 34.9316 59.2103 34.8614 60.5286C34.7913 61.8469 33.5529 78.5178 32.5144 79.4864C31.4758 80.455 28.3006 95.4724 30.7712 96.647C33.2418 97.8216 41.0364 95.8757 41.0364 95.8757L43.7479 78.1367L44.6691 64.5464C44.6691 64.5464 47.4734 96.5491 52.5596 96.455C57.6458 96.3609 63.8436 94.4327 63.8436 94.4327L56.7247 75.0516C56.7247 75.0516 56.8253 52.1069 55.1752 47.4791C53.5251 42.8513 39.2737 47.4298 39.2737 47.4298Z" fill="#2F2E41"/>
<path d="M52.1583 17.0786L46.3432 17.6089L45.4063 20.4718C45.4063 20.4718 40.5398 23.1324 41.6174 24.3412C42.695 25.5499 41.3765 33.6958 41.3765 33.6958L41.6743 40.308C41.6743 40.308 41.3544 44.8891 40.397 45.9446C39.4396 47.0001 36.935 49.5883 38.7047 48.3501C44.91 44.0083 55.7562 47.6718 55.7562 47.6718L54.2068 38.2239C54.2068 38.2239 57.7262 22.7553 56.3373 21.4489C54.9484 20.1426 53.6379 19.9774 53.6379 19.9774L52.1583 17.0786Z" fill="#2F2E41"/>
<path d="M21.6022 47.0473C21.8944 46.9932 22.171 46.8759 22.4127 46.7038C22.6544 46.5317 22.8553 46.3089 23.0012 46.0511C23.147 45.7934 23.2343 45.5069 23.257 45.2119C23.2796 44.9169 23.237 44.6206 23.1321 44.3437L32.9401 36.06L29.3464 34.98L20.369 43.1974C19.9135 43.4036 19.5499 43.769 19.3469 44.2243C19.144 44.6796 19.1159 45.1931 19.2679 45.6677C19.4199 46.1422 19.7415 46.5448 20.1717 46.7991C20.6019 47.0534 21.1109 47.1417 21.6022 47.0473V47.0473Z" fill="#FFB8B8"/>
<path d="M46.5108 25.3793C46.5108 25.3793 48.4433 21.4392 43.817 22.1123C39.1908 22.7853 21.6472 40.7001 21.6472 40.7001L24.5832 44.5431L42.3136 28.9034L46.5108 25.3793Z" fill="#2F2E41"/>
<path d="M38.977 18.696L20.6348 42.0895C20.3175 42.4955 20.1749 43.0102 20.2381 43.5207C20.3013 44.0313 20.5652 44.4961 20.972 44.8133C25.2316 55.1094 37.9749 62.7444 52.9657 69.6745C53.3734 69.9907 53.8905 70.1329 54.4034 70.07C54.9164 70.0071 55.3833 69.7441 55.7017 69.3388L74.0439 45.9453C74.3615 45.5394 74.5044 45.0246 74.4412 44.514C74.378 44.0033 74.1138 43.5385 73.7067 43.2215C61.1266 36.1498 50.3141 27.9567 41.7131 18.3603C41.3052 18.0444 40.7882 17.9024 40.2754 17.9653C39.7625 18.0282 39.2956 18.291 38.977 18.696V18.696Z" fill="#E6E6E6"/>
<path d="M72.7566 45.4132L67.1734 52.5339C63.7629 56.8575 58.7723 59.6618 53.2917 60.3342C47.8111 61.0066 42.2859 59.4925 37.923 56.1226L22.2764 43.9641C22.0446 43.784 21.8941 43.5196 21.8578 43.2291C21.8216 42.9385 21.9026 42.6456 22.083 42.4144L39.8071 19.8092C39.9886 19.5788 40.2544 19.4295 40.5463 19.3939C40.8382 19.3584 41.1324 19.4396 41.3642 19.6197C49.2791 29.7944 59.8738 37.7123 72.5649 43.8647C72.7963 44.045 72.9465 44.3092 72.9824 44.5995C73.0183 44.8898 72.9371 45.1824 72.7566 45.4132Z" fill="white"/>
<path d="M38.6111 31.4666L34.975 36.104C34.8785 36.2268 34.737 36.3065 34.5815 36.3255C34.4261 36.3445 34.2694 36.3013 34.1459 36.2053C34.0224 36.1094 33.9423 35.9686 33.9231 35.8138C33.9038 35.659 33.9471 35.503 34.0434 35.38L37.6794 30.7426C37.7272 30.6816 37.7865 30.6306 37.854 30.5925C37.9216 30.5543 37.996 30.5298 38.073 30.5203C38.1501 30.5108 38.2283 30.5166 38.3031 30.5372C38.378 30.5578 38.448 30.5929 38.5092 30.6404C38.5704 30.688 38.6216 30.7471 38.6598 30.8144C38.6981 30.8816 38.7227 30.9557 38.7321 31.0325C38.7416 31.1092 38.7358 31.187 38.715 31.2615C38.6942 31.336 38.6589 31.4057 38.6111 31.4666H38.6111Z" fill="#CCCCCC"/>
<path d="M45.4313 28.0267L37.4462 38.2109C37.3984 38.2718 37.3391 38.3227 37.2716 38.3608C37.204 38.3989 37.1296 38.4233 37.0526 38.4328C36.9756 38.4422 36.8975 38.4365 36.8227 38.4159C36.7479 38.3953 36.6779 38.3602 36.6167 38.3126C36.5556 38.2651 36.5044 38.206 36.4661 38.1388C36.4279 38.0716 36.4033 37.9975 36.3938 37.9209C36.3843 37.8442 36.3901 37.7664 36.4108 37.6919C36.4315 37.6175 36.4668 37.5478 36.5145 37.4869L44.4996 27.3028C44.5473 27.2417 44.6066 27.1906 44.6742 27.1524C44.7417 27.1143 44.8162 27.0897 44.8933 27.0802C44.9704 27.0706 45.0486 27.0763 45.1235 27.0969C45.1984 27.1175 45.2684 27.1526 45.3297 27.2002C45.3909 27.2478 45.4421 27.307 45.4804 27.3743C45.5186 27.4416 45.5432 27.5157 45.5526 27.5925C45.5621 27.6693 45.5562 27.7471 45.5354 27.8216C45.5146 27.8962 45.4792 27.9658 45.4313 28.0267H45.4313Z" fill="#CCCCCC"/>
<path d="M31.8125 45.0138C33.9621 45.0138 35.7047 43.279 35.7047 41.139C35.7047 38.999 33.9621 37.2642 31.8125 37.2642C29.6629 37.2642 27.9203 38.999 27.9203 41.139C27.9203 43.279 29.6629 45.0138 31.8125 45.0138Z" fill="#2F2E41"/>
<path d="M45.8553 36.0758L36.0479 48.5839C35.9456 48.6877 35.8085 48.7503 35.6627 48.7599C35.517 48.7695 35.3728 48.7253 35.2576 48.6358C35.1425 48.5463 35.0644 48.4178 35.0384 48.2747C35.0123 48.1316 35.04 47.984 35.1163 47.86L44.9236 35.3518C45.0259 35.248 45.1631 35.1854 45.3088 35.1758C45.4546 35.1663 45.5988 35.2104 45.7139 35.2999C45.8291 35.3894 45.9071 35.5179 45.9332 35.661C45.9592 35.8041 45.9315 35.9517 45.8553 36.0758Z" fill="#CCCCCC"/>
<path d="M52.2175 33.2198L38.5289 50.6782C38.4266 50.7819 38.2894 50.8446 38.1437 50.8541C37.9979 50.8637 37.8537 50.8195 37.7386 50.7301C37.6234 50.6406 37.5454 50.512 37.5193 50.369C37.4932 50.2259 37.521 50.0782 37.5972 49.9542L51.2859 32.4959C51.3882 32.3921 51.5253 32.3295 51.6711 32.3199C51.8168 32.3103 51.961 32.3545 52.0762 32.444C52.1913 32.5334 52.2694 32.662 52.2954 32.8051C52.3215 32.9481 52.2938 33.0958 52.2175 33.2198V33.2198Z" fill="#CCCCCC"/>
<path d="M52.17 40.9825L42.3626 53.4907C42.2603 53.5944 42.1232 53.6571 41.9774 53.6666C41.8317 53.6762 41.6875 53.632 41.5723 53.5426C41.4572 53.4531 41.3791 53.3246 41.3531 53.1815C41.327 53.0384 41.3547 52.8907 41.431 52.7667L51.2383 40.2585C51.3406 40.1548 51.4778 40.0922 51.6235 40.0826C51.7693 40.073 51.9135 40.1172 52.0286 40.2067C52.1438 40.2961 52.2218 40.4247 52.2479 40.5678C52.2739 40.7108 52.2462 40.8585 52.17 40.9825Z" fill="#CCCCCC"/>
<path d="M65.1468 42.5252L55.3394 55.0334C55.2371 55.1372 55.1 55.1998 54.9542 55.2094C54.8085 55.2189 54.6643 55.1748 54.5491 55.0853C54.434 54.9958 54.3559 54.8673 54.3299 54.7242C54.3038 54.5811 54.3315 54.4335 54.4078 54.3094L64.2151 41.8013C64.3174 41.6975 64.4546 41.6349 64.6003 41.6253C64.7461 41.6157 64.8903 41.6599 65.0054 41.7494C65.1206 41.8389 65.1986 41.9674 65.2247 42.1105C65.2507 42.2536 65.223 42.4012 65.1468 42.5252Z" fill="#2F2E41"/>
<path d="M58.5322 38.1268L44.8436 55.5851C44.7412 55.6889 44.6041 55.7515 44.4584 55.7611C44.3126 55.7707 44.1684 55.7265 44.0533 55.637C43.9381 55.5476 43.8601 55.419 43.834 55.2759C43.8079 55.1328 43.8357 54.9852 43.9119 54.8612L57.6006 37.4028C57.7029 37.2991 57.84 37.2364 57.9858 37.2269C58.1315 37.2173 58.2757 37.2615 58.3909 37.3509C58.506 37.4404 58.5841 37.569 58.6101 37.712C58.6362 37.8551 58.6085 38.0028 58.5322 38.1268V38.1268Z" fill="#CCCCCC"/>
<path d="M42.4089 9.68781C42.4086 10.6291 42.6403 11.556 43.0838 12.3873C43.5274 13.2186 44.1691 13.9288 44.9526 14.4555C45.7362 14.9822 46.6377 15.3094 47.5779 15.4084C48.5182 15.5073 49.4685 15.375 50.3453 15.023C51.2222 14.6709 51.9989 14.11 52.6072 13.3894C53.2155 12.6688 53.6367 11.8106 53.8341 10.89C54.0314 9.9695 53.9987 9.01482 53.7389 8.1098C53.4791 7.20478 53.0001 6.37708 52.3439 5.69938L52.3162 5.67181C52.27 5.62349 52.2238 5.57519 52.1753 5.52917C52.175 5.52918 52.1747 5.52912 52.1744 5.52901C52.1741 5.5289 52.1738 5.52873 52.1736 5.52851C52.1734 5.5283 52.1732 5.52804 52.1731 5.52776C52.173 5.52748 52.173 5.52718 52.173 5.52687C52.1129 5.47167 52.0528 5.41647 51.9904 5.36357C51.1558 4.63509 50.1279 4.16153 49.0299 3.99958C47.9319 3.83763 46.8102 3.99415 45.7993 4.45041C44.7883 4.90668 43.9308 5.64334 43.3296 6.57221C42.7283 7.50107 42.4086 8.58278 42.4089 9.68781V9.68781Z" fill="#2F2E41"/>
<path d="M49.6082 15.84C52.2832 15.84 54.4518 13.6812 54.4518 11.0182C54.4518 8.35512 52.2832 6.19629 49.6082 6.19629C46.9332 6.19629 44.7646 8.35512 44.7646 11.0182C44.7646 13.6812 46.9332 15.84 49.6082 15.84Z" fill="#FFB8B8"/>
<path d="M44.4447 12.3031C43.9713 10.1791 44.6556 7.79953 46.1476 6.38156C46.898 5.68248 47.8313 5.20835 48.8402 5.01366C49.8491 4.81897 50.8928 4.91163 51.8512 5.28098C51.973 5.32993 52.0948 5.3835 52.2143 5.43942L52.2699 5.46551V5.4736C52.2807 5.48104 52.2915 5.48885 52.3023 5.49676C52.3249 5.51783 52.3524 5.53295 52.3823 5.54072C52.8029 5.52977 53.221 5.60741 53.6093 5.76856C53.9976 5.9297 54.3473 6.17072 54.6356 6.4758C55.3863 7.2867 55.7398 8.59716 55.6314 10.1657L55.628 10.2148L55.586 10.2409C55.0177 10.5994 54.4279 10.9231 53.82 11.2102C51.6936 12.2056 49.7525 12.39 47.8868 11.7733L47.8525 11.762L47.0695 10.4555C46.9087 11.3566 46.9946 14.3455 46.0721 14.5075L44.4648 12.3932L44.4447 12.3031Z" fill="#2F2E41"/>
<path d="M34.2487 16.5016C35.8969 15.6546 33.7771 12.5808 34.2031 10.7836C34.629 8.98639 37.6965 8.40835 37.8919 6.57207C38.0873 4.7358 38.547 2.84187 39.7642 1.44849C40.542 0.558123 41.688 -0.0991786 42.8679 0.0123457C43.2672 0.0500784 43.6535 0.173026 44.0007 0.372815C44.3479 0.572604 44.6478 0.844543 44.8799 1.1701C45.112 1.49567 45.2709 1.8672 45.3458 2.25942C45.4207 2.65163 45.4098 3.0553 45.3138 3.44293C45.6498 2.96904 46.5192 3.07175 46.7344 3.61078C46.9257 4.08998 46.5031 4.67043 46.0056 4.71283C45.3548 5.51301 44.6095 6.36222 43.5898 6.52364C43.4273 6.56078 43.2585 6.56068 43.0961 6.52336C42.9337 6.48604 42.7819 6.41247 42.6522 6.3082C42.4123 6.07886 42.3937 5.62035 42.6783 5.44897C41.3968 5.95571 40.6455 7.335 40.4554 8.69455C40.2653 10.0541 40.5283 11.4297 40.7017 12.7914C40.875 14.1532 40.9497 15.5857 40.4133 16.8503C39.7797 18.3444 38.3207 19.4152 36.7285 19.7587C35.1363 20.1021 33.4407 19.7664 31.9994 19.0102C30.5582 18.254 29.3564 17.0996 28.3746 15.8053C30.0658 17.0008 32.4056 17.4487 34.2487 16.5016Z" fill="#2F2E41"/>
<path d="M47.2944 10.7064C45.6009 13.6108 48.7898 18.5045 45.576 19.5207L45.8407 19.2571C47.7807 16.8815 43.7259 11.8536 45.6659 9.47802C45.9673 9.12955 46.226 8.74666 46.4367 8.3374" fill="#2F2E41"/>
<path d="M44.6709 12.2592C44.6709 12.2592 46.1057 6.92752 52.2562 5.69694C52.2631 5.69466 52.2862 5.68545 52.3162 5.67167C52.3347 5.66015 52.3578 5.64864 52.3809 5.63715C52.3116 5.59804 52.2446 5.56356 52.1753 5.52902C52.175 5.52903 52.1747 5.52897 52.1744 5.52886C52.1741 5.52874 52.1739 5.52858 52.1736 5.52836C52.1734 5.52815 52.1733 5.52789 52.1732 5.52761C52.173 5.52733 52.173 5.52702 52.173 5.52672C52.1129 5.47152 52.0528 5.41632 51.9905 5.36342L51.8149 5.37033C51.8149 5.37033 45.6436 4.39739 44.6709 12.2592Z" fill="#FD6584"/>
<path d="M1.02584e-06 104.77C-8.95007e-05 104.801 0.00581229 104.831 0.0173638 104.858C0.0289152 104.886 0.0458907 104.912 0.0673123 104.933C0.0887338 104.954 0.114178 104.971 0.142183 104.983C0.170189 104.994 0.200202 105 0.230495 105H138.77C138.831 105 138.889 104.976 138.933 104.933C138.976 104.89 139 104.831 139 104.77C139 104.71 138.976 104.651 138.933 104.608C138.889 104.565 138.831 104.541 138.77 104.541H0.230483C0.200191 104.541 0.170181 104.547 0.142177 104.558C0.114174 104.57 0.0887293 104.587 0.0673093 104.608C0.0458893 104.629 0.028915 104.655 0.0173638 104.683C0.00581256 104.71 -8.82079e-05 104.74 1.02584e-06 104.77V104.77Z" fill="#CCCCCC"/>
</g>
<defs>
<clipPath id="clip0_4_5">
<rect width="139" height="105" fill="white"/>
</clipPath>
</defs>
</svg>
