<svg width="139" height="105" viewBox="0 0 139 105" fill="none" xmlns="http://www.w3.org/2000/svg">
<g clip-path="url(#clip0_4_67)">
<path d="M10.2133 95.922C10.9585 96.1823 11.7586 96.2475 12.5364 96.1114C13.3143 95.9752 14.0438 95.6422 14.6547 95.1444C16.2103 93.8467 16.6981 91.7094 17.0948 89.7298L18.2686 83.8745L15.8112 85.5562C14.0438 86.7656 12.2368 88.0139 11.0132 89.7656C9.78962 91.5174 9.25581 93.9088 10.2386 95.8044" fill="#E6E6E6"/>
<path d="M10.5928 103.419C10.2835 101.179 9.96527 98.9103 10.1828 96.6466C10.3755 94.6362 10.9926 92.673 12.249 91.0626C12.9159 90.2096 13.7274 89.4787 14.647 88.9029C14.8867 88.7525 15.1074 89.1301 14.8687 89.2799C13.2775 90.2793 12.0468 91.7551 11.3539 93.4945C10.5887 95.4288 10.4658 97.5374 10.5976 99.5922C10.6773 100.835 10.8466 102.069 11.0166 103.302C11.0301 103.358 11.0217 103.417 10.9932 103.467C10.9647 103.516 10.9182 103.554 10.8632 103.571C10.807 103.586 10.7471 103.578 10.6965 103.55C10.6459 103.521 10.6087 103.474 10.593 103.418L10.5928 103.419Z" fill="#F2F2F2"/>
<path d="M12.8191 99.8249C13.1386 100.308 13.5779 100.701 14.0946 100.966C14.6113 101.231 15.188 101.359 15.7692 101.339C17.263 101.268 18.5078 100.232 19.6283 99.2488L22.9431 96.3399L20.7493 96.2355C19.1716 96.1604 17.5532 96.09 16.0505 96.5741C14.5478 97.0582 13.1619 98.2215 12.8872 99.7674" fill="#E6E6E6"/>
<path d="M9.71847 104.706C11.2076 102.087 12.9346 99.1769 16.0209 98.2467C16.879 97.9889 17.7787 97.8966 18.6717 97.9746C18.9531 97.9988 18.8828 98.4299 18.602 98.4059C17.1051 98.2824 15.6112 98.6752 14.3716 99.5182C13.1788 100.325 12.25 101.447 11.464 102.637C10.9825 103.365 10.5512 104.125 10.1199 104.884C9.98208 105.126 9.57905 104.951 9.71847 104.706Z" fill="#F2F2F2"/>
<path d="M54.0649 51.6365C53.9703 51.6821 53.8795 51.735 53.7933 51.7947L45.0198 48.3862L44.6721 46.1382L41.1899 46.2164L41.4165 50.2555C41.4348 50.5818 41.5591 50.8934 41.7707 51.1435C41.9824 51.3937 42.2699 51.5688 42.5903 51.6426L53.0299 54.0497C53.1574 54.4316 53.3989 54.7659 53.7222 55.0081C54.0456 55.2503 54.4354 55.3889 54.84 55.4055C55.2445 55.4222 55.6446 55.316 55.9869 55.1011C56.3293 54.8862 56.5977 54.5728 56.7564 54.2027C56.9152 53.8325 56.9568 53.423 56.8758 53.0288C56.7947 52.6345 56.5947 52.2741 56.3026 51.9955C56.0104 51.717 55.6398 51.5334 55.24 51.4693C54.8403 51.4051 54.4304 51.4635 54.0649 51.6365H54.0649Z" fill="#9F616A"/>
<path d="M40.8922 102.425L43.2209 102.425L44.3287 93.4978L40.8918 93.498L40.8922 102.425Z" fill="#9F616A"/>
<path d="M40.2982 101.669L44.8842 101.669H44.8844C45.6595 101.669 46.4028 101.975 46.9509 102.52C47.499 103.065 47.8069 103.803 47.8069 104.574V104.668L40.2984 104.668L40.2982 101.669Z" fill="#2F2E41"/>
<path d="M29.6856 102.425L32.0143 102.425L33.122 93.4978L29.6852 93.498L29.6856 102.425Z" fill="#9F616A"/>
<path d="M29.0916 101.669L33.6775 101.669H33.6777C34.4528 101.669 35.1961 101.975 35.7442 102.52C36.2923 103.065 36.6002 103.803 36.6003 104.574V104.668L29.0917 104.668L29.0916 101.669Z" fill="#2F2E41"/>
<path d="M31.0358 34.3632C30.3726 31.6416 29.8108 28.572 31.0615 26.0655C31.9293 24.3263 35.1396 23.7406 36.98 24.3672C38.8203 24.9938 40.1508 26.6936 40.736 28.5471C41.3212 30.4005 41.2532 32.3977 40.9982 34.3244C37.6136 34.2598 34.229 34.1952 31.0358 34.3632Z" fill="#2F2E41"/>
<path d="M36.7474 34.3624C38.9272 34.3624 40.6942 32.6061 40.6942 30.4397C40.6942 28.2733 38.9272 26.5171 36.7474 26.5171C34.5677 26.5171 32.8007 28.2733 32.8007 30.4397C32.8007 32.6061 34.5677 34.3624 36.7474 34.3624Z" fill="#9F616A"/>
<path d="M31.9225 29.6316C31.91 28.9714 32.0311 28.3154 32.2786 27.7027C32.5262 27.0899 32.8952 26.5329 33.3636 26.0646C33.832 25.5964 34.3904 25.2265 35.0055 24.9769C35.6206 24.7274 36.28 24.6033 36.9443 24.612C37.6086 24.6207 38.2644 24.762 38.8727 25.0276C39.481 25.2932 40.0293 25.6776 40.4852 26.1579C40.9411 26.6383 41.2951 27.2048 41.5263 27.8238C41.7576 28.4429 41.8612 29.1018 41.8312 29.7615C38.453 29.7686 35.0749 29.7757 31.9225 29.6316Z" fill="#2F2E41"/>
<path d="M33.4719 48.8342L31.8213 51.5684C31.8213 51.5684 27.3008 59.9948 27.5697 66.9794L28.57 75.6792L27.4722 77.8141L28.207 81.5703L26.8423 84.261L29.3093 97.2512L29.4143 100.068H33.4036L33.1936 97.199L34.8733 84.5439L37.7078 71.032L39.1776 82.6959L38.6527 85.6174L39.335 88.0693L40.2799 95.6339L40.3849 99.2858L44.0067 99.7031L45.3715 86.1913L46.1588 79.7443L41.9392 51.1595L33.4719 48.8342Z" fill="#2F2E41"/>
<path d="M32.9484 35.6323L30.491 36.6696L29.1108 42.3467L32.0168 49.7433L30.9304 53.4389C34.2189 59.0297 38.2892 59.842 43.0789 56.2567C42.0652 53.428 42.2116 50.5194 43.2218 47.5513C43.2218 47.5513 45.7414 45.2194 43.9813 42.1878L42.3024 37.6586L40.2237 36.6256L32.9484 35.6323Z" fill="#CBCBCB"/>
<path d="M41.8182 38.6459L42.3761 37.6162C42.3761 37.6162 43.8473 37.8361 44.4481 39.5964C45.049 41.3566 45.2052 48.4675 45.2052 48.4675L42.0573 48.6259L41.8182 38.6459Z" fill="#CBCBCB"/>
<path d="M29.4862 62.7808C29.7533 62.6487 29.988 62.46 30.1737 62.228C30.3595 61.996 30.4918 61.7264 30.5614 61.4381C30.631 61.1498 30.6361 60.8498 30.5764 60.5593C30.5167 60.2688 30.3936 59.9949 30.2159 59.7568L31.7417 44.9299H28.4443L27.2317 59.4076C26.849 59.7309 26.5989 60.1824 26.5289 60.6767C26.4588 61.171 26.5736 61.6737 26.8515 62.0894C27.1294 62.5052 27.5511 62.8053 28.0367 62.9327C28.5223 63.0601 29.038 63.006 29.4862 62.7808V62.7808Z" fill="#9F616A"/>
<path d="M32.4993 38.3465L31.3437 36.7228C31.3437 36.7228 29.3115 35.3535 28.2755 38.5049C27.2394 41.6564 27.3988 47.4949 27.3988 47.4949L31.3437 49.1186L32.4993 38.3465Z" fill="#CBCBCB"/>
<path d="M101.391 14.1584H83.1569V24.3526H101.391V14.1584Z" fill="#F1F1F1"/>
<path d="M139 6.22974H120.766V16.4239H139V6.22974Z" fill="#F1F1F1"/>
<path d="M133.302 32.6592H115.067V42.8533H133.302V32.6592Z" fill="#F1F1F1"/>
<path d="M126.464 0H108.229V10.1942H126.464V0Z" fill="#E5E5E5"/>
<path d="M127.034 18.7954H97.0227V35.5733H127.034V18.7954Z" fill="#2F2E41"/>
<path d="M66.3796 45.9793H97.8573V32.5364H98.3493V46.4682H66.3796V45.9793Z" fill="#3F3D56"/>
<path d="M98.1034 37.4824C99.5974 37.4824 100.809 36.2787 100.809 34.7938C100.809 33.3089 99.5974 32.1052 98.1034 32.1052C96.6094 32.1052 95.3983 33.3089 95.3983 34.7938C95.3983 36.2787 96.6094 37.4824 98.1034 37.4824Z" fill="#3F3D56"/>
<path d="M74.1125 50.7961H59.3573V51.285H74.1125V50.7961Z" fill="#2F2E41"/>
<path d="M74.1125 52.2627H59.3573V52.7515H74.1125V52.2627Z" fill="#2F2E41"/>
<path d="M74.1125 53.7292H59.3573V54.2181H74.1125V53.7292Z" fill="#2F2E41"/>
<path d="M63.6308 104.962H0.189943C0.139567 104.962 0.091254 104.942 0.0556328 104.907C0.0200116 104.871 0 104.823 0 104.773C0 104.723 0.0200116 104.675 0.0556328 104.64C0.091254 104.604 0.139567 104.584 0.189943 104.584H63.6308C63.6812 104.584 63.7295 104.604 63.7651 104.64C63.8008 104.675 63.8208 104.723 63.8208 104.773C63.8208 104.823 63.8008 104.871 63.7651 104.907C63.7295 104.942 63.6812 104.962 63.6308 104.962Z" fill="#CBCBCB"/>
<path d="M59.0711 101.489C58.7338 101.607 58.3717 101.637 58.0196 101.575C57.6675 101.514 57.3373 101.363 57.0609 101.138C56.3568 100.55 56.1358 99.5826 55.9564 98.6866L55.4252 96.0364L56.5374 96.7976C57.3373 97.345 58.1551 97.9099 58.709 98.7028C59.2629 99.4958 59.5046 100.578 59.0596 101.436" fill="#E6E6E6"/>
<path d="M58.976 104.698C59.1213 103.885 59.1714 103.058 59.1254 102.234C59.0741 101.499 58.8132 100.794 58.3735 100.202C58.1308 99.8914 57.8355 99.6255 57.5009 99.4159C57.4136 99.3613 57.3333 99.4987 57.4202 99.5531C57.9992 99.9168 58.447 100.454 58.6991 101.087C58.9532 101.797 59.047 102.555 58.9739 103.306C58.9449 103.758 58.8834 104.207 58.8214 104.656C58.8164 104.676 58.8194 104.697 58.8298 104.716C58.8402 104.734 58.8572 104.747 58.8773 104.753C58.8977 104.759 58.9195 104.756 58.9379 104.746C58.9563 104.735 58.9699 104.718 58.9756 104.698L58.976 104.698Z" fill="#F2F2F2"/>
</g>
<defs>
<clipPath id="clip0_4_67">
<rect width="139" height="105" fill="white"/>
</clipPath>
</defs>
</svg>
