<svg width="216" height="234" viewBox="0 0 216 234" fill="none" xmlns="http://www.w3.org/2000/svg">
<g clip-path="url(#clip0_5_2)">
<path d="M176.822 110.25C183.507 114.542 189.768 120.288 195.634 127.375V138.211C192.772 137.241 181.847 133.221 177.534 126.863C172.549 119.515 171.662 108.361 175.814 105.568C176.896 104.842 178.209 104.752 179.65 105.15C184.195 108.404 188.542 112.351 192.694 116.95C194.166 119.201 195.076 122.067 195.634 124.963V125.1C190.262 117.655 183.947 112.826 176.822 110.25Z" fill="#9E606F"/>
<path d="M176.486 43.6933C183.171 47.9843 189.432 53.7304 195.298 60.8175V63.2925C194.737 63.1019 193.87 62.7975 192.802 62.3794C188.005 56.7171 182.536 52.9042 176.486 50.7169C180.718 53.4327 184.783 56.7338 188.683 60.5901C184.558 58.6134 179.734 55.6836 177.198 51.9443C176.929 51.5497 176.674 51.1517 176.432 50.7503C172.166 43.6999 171.884 35.9673 175.814 33.325C179.966 30.5323 187.246 34.4889 192.231 41.8337C195.113 46.0846 195.923 52.6801 196.087 57.4796C195.822 57.8275 195.56 58.182 195.298 58.5432C189.926 51.0982 183.611 46.2686 176.486 43.6932V43.6933Z" fill="#9E606F"/>
<path d="M214.54 83.2279V83.2312C214.063 84.5457 213.465 85.8735 212.753 87.1812C211.694 89.1278 210.068 90.9338 208.228 92.5493C206.256 94.2817 204.032 95.7935 201.986 97.021C199.131 98.7367 196.621 99.9006 195.634 100.342V99.2886C201.307 92.566 207.341 87.0875 213.774 82.9603C206.941 85.4286 200.857 89.9773 195.634 96.9106V92.265C201.307 85.5423 207.341 80.0639 213.774 75.9367C206.941 78.405 200.857 82.9536 195.634 89.887V85.2414C201.234 78.609 207.179 73.1875 213.518 69.0803C216.488 71.4583 216.747 77.1943 214.54 83.2279V83.2279Z" fill="#9E606F"/>
<path d="M48.2676 130.181C74.925 130.181 96.5351 108.666 96.5351 82.1246C96.5351 55.5838 74.925 34.0681 48.2676 34.0681C21.6101 34.0681 0 55.5838 0 82.1246C0 108.666 21.6101 130.181 48.2676 130.181Z" fill="#FF6884"/>
<path d="M199.496 159.173C203.555 162.577 205.081 167.423 202.905 169.995C200.728 172.567 195.673 171.891 191.612 168.484C189.971 167.146 188.676 165.435 187.836 163.496L170.817 148.853L177.889 141.049L193.915 156.313C195.978 156.809 197.892 157.789 199.496 159.173Z" fill="#FCB4B4"/>
<path d="M185.754 148.339L164.949 121.741L145.245 85.835L144.734 135.633L174.27 159.786L185.754 148.339Z" fill="#2F2E41"/>
<path d="M95.2542 75.1272L100.02 53.5527L115.95 54.3156L120.039 69.9667L95.2542 75.1272Z" fill="#FCB4B4"/>
<path opacity="0.1" d="M95.2542 75.1272L100.02 53.5527L115.95 54.3156L120.039 69.9667L95.2542 75.1272Z" fill="black"/>
<path d="M107.591 59.3416C117.44 59.3416 125.425 51.392 125.425 41.5857C125.425 31.7794 117.44 23.8298 107.591 23.8298C97.7413 23.8298 89.7568 31.7794 89.7568 41.5857C89.7568 51.392 97.7413 59.3416 107.591 59.3416Z" fill="#FCB4B4"/>
<path d="M99.6135 48.4428V48.4428C99.6135 48.4428 97.8144 48.4255 94.0721 47.7326C90.3299 47.0397 96.8273 55.7461 96.8273 55.7461C79.2167 48.4248 84.852 29.8544 84.852 29.8544C66.9792 26.4513 74.4665 10.6323 74.4665 10.6323C74.4665 10.6323 80.358 -0.687338 98.4689 0.0329749C116.58 0.753288 108.024 18.5376 108.024 18.5376C119.824 18.5599 121.151 29.1476 121.151 29.1476C121.151 29.1476 116.897 29.6763 109.167 31.6297C101.436 33.5831 99.6136 48.4428 99.6136 48.4428L99.6135 48.4428L99.6135 48.4428H99.6135Z" fill="#2F2E41"/>
<path d="M98.9065 68.3324L98.101 66.7708C98.101 66.7708 83.7699 68.4246 81.4184 70.6078C79.0669 72.791 73.6921 82.4903 73.6921 82.4903L85.4495 92.524L98.9065 68.3324Z" fill="#FFB6B6"/>
<path d="M116.691 67.9532C116.691 67.9532 127.44 65.0985 133.487 71.1187C139.534 77.139 146.588 88.1761 146.588 88.1761L146.252 96.872L129.456 88.8108L116.691 67.9532V67.9532Z" fill="#FFB6B6"/>
<path d="M119.431 66.7708C119.431 66.7708 133.487 61.7539 142.557 72.4566C151.627 83.1593 154.315 116.94 154.315 116.94C154.315 116.94 174.806 179.483 169.767 180.152C164.728 180.821 133.978 182.67 133.978 182.67L123.409 114.598L118.706 66.7708H119.431Z" fill="#2F2E41"/>
<path d="M87.1292 126.973L83.7699 139.014L129.456 142.358C129.456 142.358 127.776 132.293 129.456 128.63L87.1292 126.973Z" fill="#FCB4B4"/>
<path d="M112.996 205.237L115.011 234L140.38 233.331L139.534 204.233L112.996 205.237Z" fill="#FCB4B4"/>
<path d="M73.4151 202.391L65.9658 233.665L92.5237 233.487L99.2901 207.924L73.4151 202.391Z" fill="#FCB4B4"/>
<path d="M118.706 66.7708H98.1011L81.4184 88.845L85.1136 133.997C85.1136 133.997 93.5118 131.656 105.269 131.656H130.464C130.464 131.656 126.769 119.95 131.472 115.267C136.175 110.585 132.815 88.845 132.815 88.845L118.706 66.7708Z" fill="#9E606F"/>
<path d="M82.0903 135.335L63.2784 203.23C63.2784 203.23 90.979 214.312 107.698 211.112C124.417 207.912 147.26 206.909 147.26 206.909L131.136 138.01L82.0903 135.335Z" fill="#2F2E41"/>
<path d="M125.592 160.176C129.651 163.581 131.177 168.426 129.001 170.998C126.824 173.57 121.769 172.894 117.708 169.488C116.067 168.149 114.772 166.439 113.932 164.499L96.9135 149.857L103.985 142.052L120.011 157.316C122.074 157.812 123.988 158.792 125.592 160.176Z" fill="#FCB4B4"/>
<path d="M115.209 148.339L94.4046 121.741L74.6999 85.835L74.1889 135.633L103.725 159.786L115.209 148.339Z" fill="#2F2E41"/>
<path d="M99.5056 66.7708C99.5056 66.7708 85.4495 61.7539 76.3795 72.4566C67.3095 83.1593 64.622 116.94 64.622 116.94C64.622 116.94 44.1305 179.483 49.1694 180.152C54.2083 180.821 84.959 182.67 84.959 182.67L95.5273 114.598L100.23 66.7708H99.5056Z" fill="#2F2E41"/>
<path d="M195.97 54.0615H195.298V170.453H195.97V54.0615Z" fill="#3F3D56"/>
<path d="M9.19409 173.463C15.879 177.754 22.1407 183.5 28.006 190.587V201.424C25.1439 200.454 14.2196 196.434 9.90625 190.076C4.92111 182.728 4.03426 171.573 8.18631 168.781C9.26798 168.055 10.5815 167.965 12.0226 168.363C16.5677 171.617 20.9146 175.563 25.0666 180.162C26.538 182.413 27.4484 185.279 28.006 188.176V188.313C22.6345 180.868 16.3191 176.038 9.19409 173.463Z" fill="#9E606F"/>
<path d="M8.85815 106.906C15.5431 111.197 21.8048 116.943 27.6701 124.03V126.505C27.1091 126.314 26.2424 126.01 25.1742 125.592C20.3771 119.93 14.9082 116.117 8.85815 113.93C13.0908 116.645 17.1555 119.946 21.0557 123.803C16.9305 121.826 12.1066 118.896 9.57032 115.157C9.30158 114.762 9.04627 114.364 8.80441 113.963C4.53814 106.913 4.25595 99.1799 8.1863 96.5377C12.3384 93.7449 19.6179 97.7016 24.6031 105.046C27.4853 109.297 28.2949 115.893 28.4595 120.692C28.1941 121.04 27.9321 121.395 27.6701 121.756C22.2986 114.311 15.9832 109.481 8.85815 106.906Z" fill="#9E606F"/>
<path d="M46.912 146.441V146.444C46.435 147.758 45.837 149.086 45.1248 150.394C44.0667 152.34 42.4408 154.146 40.5999 155.762C38.628 157.494 36.4042 159.006 34.3584 160.234C31.503 161.949 28.9936 163.113 28.006 163.555V162.501C33.6798 155.779 39.7131 150.3 46.1461 146.173C39.3133 148.641 33.2297 153.19 28.006 160.123V155.478C33.6798 148.755 39.7131 143.277 46.1461 139.149C39.3133 141.618 33.2297 146.166 28.006 153.1V148.454C33.6059 141.822 39.5518 136.4 45.8908 132.293C48.8604 134.671 49.119 140.407 46.912 146.441Z" fill="#9E606F"/>
<path d="M28.3419 117.274H27.6701V233.665H28.3419V117.274Z" fill="#3F3D56"/>
<path d="M36.9826 59.5981C37.1959 59.5981 37.3359 59.7514 37.4026 60.0581C37.4826 60.3648 37.5226 60.8314 37.5226 61.4581C37.5226 62.0981 37.4826 62.5714 37.4026 62.8781C37.3226 63.1714 37.1826 63.3181 36.9826 63.3181C36.6226 63.3181 36.1959 63.2514 35.7026 63.1181L35.6426 63.1581C35.6692 64.2114 35.6159 65.0781 35.4826 65.7581C34.4692 66.5981 33.3559 67.2781 32.1426 67.7981C30.9292 68.3181 29.7359 68.5781 28.5626 68.5781C27.1759 68.5781 26.0492 68.1981 25.1826 67.4381C24.3159 66.6781 23.8826 65.5448 23.8826 64.0381C23.8826 63.3181 23.9892 62.4848 24.2026 61.5381C24.4159 60.5914 24.7359 59.5981 25.1626 58.5581L27.9226 59.4581C27.4026 60.9381 27.1426 62.1048 27.1426 62.9581C27.1426 63.6248 27.3026 64.1248 27.6226 64.4581C27.9559 64.7914 28.4292 64.9581 29.0426 64.9581C30.0426 64.9581 31.3626 64.5181 33.0026 63.6381C32.6159 63.2914 32.1759 62.9648 31.6826 62.6581C31.0826 62.2848 30.5159 61.9581 29.9826 61.6781L30.9626 59.0381C32.0026 59.2514 32.9359 59.3914 33.7626 59.4581C34.8159 59.5514 35.8892 59.5981 36.9826 59.5981ZM32.2226 70.8381C32.2492 71.0381 32.1026 71.3648 31.7826 71.8181C31.4626 72.2714 31.1892 72.5781 30.9626 72.7381C30.7092 72.6314 30.3892 72.4448 30.0026 72.1781C29.6159 71.9248 29.3292 71.6914 29.1426 71.4781C29.0092 71.7181 28.8359 71.9648 28.6226 72.2181C28.4092 72.4714 28.2359 72.6448 28.1026 72.7381C27.8359 72.6181 27.4959 72.4114 27.0826 72.1181C26.6692 71.8381 26.3759 71.5981 26.2026 71.3981C26.2826 71.1181 26.4826 70.7448 26.8026 70.2781C27.1226 69.8114 27.3892 69.5781 27.6026 69.5781C27.8159 69.5781 28.1359 69.7248 28.5626 70.0181C28.9892 70.3248 29.2492 70.5781 29.3426 70.7781C29.5292 70.4448 29.7226 70.1581 29.9226 69.9181C30.1226 69.6914 30.3026 69.5781 30.4626 69.5781C30.6759 69.5781 31.0092 69.7381 31.4626 70.0581C31.9292 70.3914 32.1826 70.6514 32.2226 70.8381ZM51.494 56.4781C51.7473 57.2381 51.874 58.1181 51.874 59.1181C51.874 59.8248 51.8006 60.4981 51.654 61.1381C51.5206 61.7781 51.3206 62.3114 51.054 62.7381C50.1473 63.1648 49.2673 63.3781 48.414 63.3781C47.7873 63.3781 47.2273 63.2581 46.734 63.0181C46.254 62.7648 45.8673 62.3981 45.574 61.9181H45.394C45.1006 62.3981 44.7206 62.7714 44.254 63.0381C43.8006 63.2914 43.294 63.4181 42.734 63.4181C42.214 63.4181 41.7206 63.3048 41.254 63.0781C40.8006 62.8381 40.4406 62.5181 40.174 62.1181H39.994C39.554 62.6114 39.1006 62.9381 38.634 63.0981C38.1806 63.2448 37.6273 63.3181 36.974 63.3181C36.774 63.3181 36.634 63.1714 36.554 62.8781C36.474 62.5714 36.434 62.0981 36.434 61.4581C36.434 60.8314 36.474 60.3648 36.554 60.0581C36.6206 59.7514 36.7606 59.5981 36.974 59.5981C37.5206 59.5981 37.974 59.5648 38.334 59.4981C38.7073 59.4181 39.0473 59.2248 39.354 58.9181C39.6606 58.5981 39.854 58.1048 39.934 57.4381H41.594C41.6606 58.9581 42.1406 59.7181 43.034 59.7181C43.4873 59.7181 43.8873 59.5381 44.234 59.1781C44.594 58.8181 44.8606 58.2514 45.034 57.4781L46.714 57.7381C46.6873 57.9781 46.674 58.1514 46.674 58.2581C46.674 59.2848 47.1073 59.7981 47.974 59.7981C48.254 59.7981 48.6073 59.7381 49.034 59.6181C48.914 59.1114 48.7673 58.6114 48.594 58.1181C48.434 57.6248 48.334 57.3248 48.294 57.2181L51.494 56.4781ZM45.134 53.1981C44.894 53.0914 44.574 52.8981 44.174 52.6181C43.774 52.3381 43.4873 52.1048 43.314 51.9181C43.354 51.7581 43.454 51.5381 43.614 51.2581C43.774 50.9781 43.9473 50.7314 44.134 50.5181C44.334 50.3048 44.5073 50.1981 44.654 50.1981C44.8673 50.1981 45.1873 50.3514 45.614 50.6581C46.054 50.9648 46.294 51.2048 46.334 51.3781C46.3606 51.5648 46.2206 51.8781 45.914 52.3181C45.6073 52.7581 45.3473 53.0514 45.134 53.1981ZM48.054 54.1981C48.0806 54.3981 47.934 54.7248 47.614 55.1781C47.294 55.6314 47.0206 55.9314 46.794 56.0781C46.5673 55.9848 46.2606 55.8114 45.874 55.5581C45.4873 55.2914 45.1873 55.0514 44.974 54.8381C44.8406 55.0781 44.6673 55.3248 44.454 55.5781C44.2406 55.8181 44.0673 55.9848 43.934 56.0781C43.6806 55.9714 43.3406 55.7714 42.914 55.4781C42.5006 55.1848 42.2073 54.9381 42.034 54.7381C42.1006 54.4714 42.2873 54.1181 42.594 53.6781C42.914 53.2248 43.1806 52.9781 43.394 52.9381C43.5806 52.8981 43.894 53.0314 44.334 53.3381C44.7873 53.6448 45.0673 53.9048 45.174 54.1181C45.3473 53.7981 45.5406 53.5248 45.754 53.2981C45.9673 53.0581 46.154 52.9381 46.314 52.9381C46.5406 52.9381 46.874 53.1048 47.314 53.4381C47.7673 53.7581 48.014 54.0114 48.054 54.1981ZM57.3618 59.5981C57.5751 59.5981 57.7151 59.7514 57.7818 60.0581C57.8618 60.3648 57.9018 60.8314 57.9018 61.4581C57.9018 62.0981 57.8618 62.5714 57.7818 62.8781C57.7018 63.1714 57.5618 63.3181 57.3618 63.3181C56.6284 63.3181 55.9151 63.2714 55.2218 63.1781C54.5418 63.0848 53.9684 62.9381 53.5018 62.7381C53.3818 62.2581 53.2818 60.0914 53.2018 56.2381L53.0818 52.1781L56.3018 51.9981C56.4218 53.9848 56.4818 55.8114 56.4818 57.4781C56.4818 57.9848 56.4684 58.6648 56.4418 59.5181C56.7751 59.5714 57.0818 59.5981 57.3618 59.5981ZM63.8046 55.7581C64.3913 55.7581 64.9113 55.9314 65.3646 56.2781C65.8179 56.6114 66.1646 57.0848 66.4046 57.6981C66.6579 58.2981 66.7846 58.9848 66.7846 59.7581C66.7846 60.8114 66.5579 61.6914 66.1046 62.3981C65.6513 63.0914 65.0179 63.4381 64.2046 63.4381C63.6713 63.4381 63.1113 63.2914 62.5246 62.9981C61.9513 62.7048 61.4046 62.3181 60.8846 61.8381C60.4446 62.3181 59.9246 62.6848 59.3246 62.9381C58.7379 63.1914 58.0846 63.3181 57.3646 63.3181C57.1646 63.3181 57.0246 63.1714 56.9446 62.8781C56.8646 62.5714 56.8246 62.0981 56.8246 61.4581C56.8246 60.8314 56.8646 60.3648 56.9446 60.0581C57.0113 59.7514 57.1513 59.5981 57.3646 59.5981C57.9646 59.5981 58.4846 59.5048 58.9246 59.3181C59.3779 59.1181 59.7513 58.8781 60.0446 58.5981C60.3513 58.3181 60.7046 57.9448 61.1046 57.4781C61.5846 56.9048 62.0113 56.4781 62.3846 56.1981C62.7713 55.9048 63.2446 55.7581 63.8046 55.7581ZM64.0446 59.9981C64.2846 59.9981 64.5113 59.9781 64.7246 59.9381C64.9379 59.8848 65.0713 59.8248 65.1246 59.7581C65.1113 59.5714 64.9779 59.4114 64.7246 59.2781C64.4846 59.1448 64.1513 59.0781 63.7246 59.0781C63.1246 59.0781 62.5913 59.2181 62.1246 59.4981C62.3646 59.6714 62.6579 59.7981 63.0046 59.8781C63.3513 59.9581 63.6979 59.9981 64.0446 59.9981ZM33.065 89.8181C33.1317 91.3914 32.8583 92.7248 32.245 93.8181C31.6717 93.9914 30.9117 94.1381 29.965 94.2581C29.0183 94.3781 27.985 94.4381 26.865 94.4381C24.8783 94.4381 22.8783 94.2314 20.865 93.8181C21.0117 92.5114 21.285 91.2981 21.685 90.1781C22.5917 90.3114 23.625 90.4314 24.785 90.5381C25.945 90.6314 27.045 90.6781 28.085 90.6781C28.7917 90.6781 29.4983 90.6448 30.205 90.5781C30.1783 89.7648 30.1117 88.8048 30.005 87.6981C29.9117 86.5781 29.8117 85.4714 29.705 84.3781L29.585 83.1781L32.805 82.9981C32.9783 85.5581 33.065 87.8314 33.065 89.8181ZM28.085 89.2381C27.5917 89.2248 26.9783 89.2514 26.245 89.3181C25.525 89.3848 24.8783 89.4714 24.305 89.5781C24.2517 89.4848 24.2117 89.3448 24.185 89.1581C24.1583 88.9714 24.145 88.7781 24.145 88.5781C24.145 88.2848 24.1717 88.0848 24.225 87.9781C24.5983 87.8448 24.9517 87.7381 25.285 87.6581C24.965 87.2581 24.805 86.8514 24.805 86.4381C24.805 86.1048 24.9117 85.7848 25.125 85.4781C25.3517 85.1714 25.6317 84.9248 25.965 84.7381C26.3117 84.5514 26.645 84.4581 26.965 84.4581C27.245 84.4581 27.4783 84.5248 27.665 84.6581C27.9983 84.8581 28.165 85.1714 28.165 85.5981C28.165 85.9314 28.0583 86.2381 27.845 86.5181C27.4983 86.3448 27.1783 86.2581 26.885 86.2581C26.6983 86.2581 26.545 86.2914 26.425 86.3581C26.305 86.4248 26.2383 86.5248 26.225 86.6581C26.1983 86.8848 26.2783 87.1448 26.465 87.4381C27.0917 87.3448 27.625 87.2981 28.065 87.2981C28.2383 87.2981 28.4717 87.3114 28.765 87.3381L28.825 87.4581C28.785 87.6848 28.6783 88.0048 28.505 88.4181C28.3317 88.8314 28.1917 89.1048 28.085 89.2381ZM43.8931 90.5981C44.1064 90.5981 44.2464 90.7514 44.3131 91.0581C44.3931 91.3648 44.4331 91.8314 44.4331 92.4581C44.4331 93.0981 44.3931 93.5714 44.3131 93.8781C44.2331 94.1714 44.0931 94.3181 43.8931 94.3181C43.3731 94.3181 42.8398 94.1914 42.2931 93.9381C41.7598 93.6714 41.2598 93.2781 40.7931 92.7581C40.6331 93.0114 40.3864 93.3781 40.0531 93.8581C39.7064 94.0181 39.2464 94.1514 38.6731 94.2581C38.1131 94.3648 37.5064 94.4181 36.8531 94.4181C36.0398 94.4181 35.3198 94.3314 34.6931 94.1581C34.7464 92.9314 34.9664 91.7448 35.3531 90.5981C36.0464 90.6648 36.6398 90.6981 37.1331 90.6981C37.9198 90.6981 38.6531 90.6248 39.3331 90.4781C38.6131 89.1981 37.8131 87.9914 36.9331 86.8581L39.6931 84.5181C40.1731 85.1981 40.5598 85.8448 40.8531 86.4581C41.1598 87.0714 41.5131 87.8581 41.9131 88.8181C42.1264 89.3114 42.3131 89.6781 42.4731 89.9181C42.6331 90.1581 42.8198 90.3314 43.0331 90.4381C43.2464 90.5448 43.5331 90.5981 43.8931 90.5981ZM49.7778 86.6581C50.8978 87.3781 51.7445 87.9114 52.3178 88.2581C52.8911 88.5914 53.2978 88.7581 53.5378 88.7581C53.4978 89.5181 53.4111 90.1648 53.2778 90.6981C53.1578 91.2181 52.9511 91.8181 52.6578 92.4981C52.3111 92.4714 52.0578 92.4581 51.8978 92.4581C51.1111 92.4581 50.2445 92.6248 49.2978 92.9581C48.9378 93.0914 48.6045 93.2181 48.2978 93.3381C47.4845 93.6581 46.7578 93.9048 46.1178 94.0781C45.4778 94.2381 44.7378 94.3181 43.8978 94.3181C43.6978 94.3181 43.5578 94.1714 43.4778 93.8781C43.3978 93.5714 43.3578 93.0981 43.3578 92.4581C43.3578 91.8314 43.3978 91.3648 43.4778 91.0581C43.5445 90.7514 43.6845 90.5981 43.8978 90.5981C44.6178 90.5981 45.2311 90.5514 45.7378 90.4581C46.2578 90.3648 46.9378 90.2181 47.7778 90.0181L48.2778 89.8981L49.5178 89.6181C49.0111 89.3381 48.5845 89.1314 48.2378 88.9981C47.8645 88.8514 47.4645 88.7514 47.0378 88.6981C46.6111 88.6314 46.0578 88.5781 45.3778 88.5381L44.9378 88.5181L44.8578 88.4381C44.9111 87.9314 45.0111 87.3714 45.1578 86.7581C45.3178 86.1314 45.4711 85.6714 45.6178 85.3781C45.8978 85.3381 46.1578 85.3181 46.3978 85.3181C46.8911 85.3181 47.3511 85.3981 47.7778 85.5581C48.2045 85.7048 48.6378 85.9181 49.0778 86.1981L49.7778 86.6581ZM61.9536 90.5981C62.1669 90.5981 62.3069 90.7514 62.3736 91.0581C62.4536 91.3648 62.4936 91.8314 62.4936 92.4581C62.4936 93.0981 62.4536 93.5714 62.3736 93.8781C62.2936 94.1714 62.1536 94.3181 61.9536 94.3181C61.4602 94.3181 60.9402 94.2781 60.3936 94.1981C60.0602 95.1714 59.6269 96.0981 59.0936 96.9781C58.5602 97.8714 58.0269 98.6381 57.4936 99.2781C57.0669 99.1181 56.5336 98.8248 55.8936 98.3981C55.2669 97.9848 54.7936 97.5981 54.4736 97.2381C54.5136 97.1848 54.5602 97.1314 54.6136 97.0781C54.6802 97.0248 54.7402 96.9648 54.7936 96.8981C55.9136 95.7381 56.7536 94.7381 57.3136 93.8981C56.5269 93.7248 55.8669 93.3981 55.3336 92.9181C54.8002 92.4248 54.5336 91.8114 54.5336 91.0781C54.5336 90.4248 54.7136 89.7581 55.0736 89.0781C55.4336 88.3848 55.8869 87.8181 56.4336 87.3781C56.9936 86.9248 57.5469 86.6981 58.0936 86.6981C58.6802 86.6981 59.1869 86.8848 59.6136 87.2581C60.0402 87.6314 60.3669 88.1114 60.5936 88.6981C60.8336 89.2848 60.9736 89.9048 61.0136 90.5581C61.4402 90.5848 61.7536 90.5981 61.9536 90.5981ZM56.5936 90.3181C56.6736 90.4648 57.0136 90.5781 57.6136 90.6581C57.9336 90.6981 58.2669 90.7181 58.6136 90.7181C58.9069 90.7181 59.1202 90.7114 59.2536 90.6981C59.0269 90.4181 58.7402 90.1914 58.3936 90.0181C58.0602 89.8314 57.7336 89.7381 57.4136 89.7381C57.1736 89.7381 56.9736 89.7914 56.8136 89.8981C56.6669 89.9914 56.5936 90.1314 56.5936 90.3181ZM66.4247 87.4781C66.6647 88.2381 66.7847 89.1114 66.7847 90.0981C66.7847 90.8181 66.7113 91.4981 66.5647 92.1381C66.4313 92.7781 66.2313 93.3114 65.9647 93.7381C64.7513 94.1248 63.4113 94.3181 61.9447 94.3181C61.7447 94.3181 61.6047 94.1714 61.5247 93.8781C61.4447 93.5714 61.4047 93.0981 61.4047 92.4581C61.4047 91.8314 61.4447 91.3648 61.5247 91.0581C61.5913 90.7514 61.7313 90.5981 61.9447 90.5981C62.7847 90.5981 63.4313 90.5381 63.8847 90.4181C63.7513 89.8581 63.5247 89.1248 63.2047 88.2181L66.4247 87.4781ZM63.3847 95.7181C63.5313 95.6914 63.7513 95.7581 64.0447 95.9181C64.3513 96.0781 64.6313 96.2714 64.8847 96.4981C65.1513 96.7381 65.298 96.9248 65.3247 97.0581C65.378 97.2581 65.2247 97.6048 64.8647 98.0981C64.518 98.6048 64.2247 98.9381 63.9847 99.0981C63.7047 98.9914 63.338 98.7781 62.8847 98.4581C62.4313 98.1514 62.118 97.8848 61.9447 97.6581C61.9847 97.4848 62.0847 97.2448 62.2447 96.9381C62.418 96.6448 62.6113 96.3714 62.8247 96.1181C63.038 95.8781 63.2247 95.7448 63.3847 95.7181Z" fill="#3F3D56"/>
</g>
<defs>
<clipPath id="clip0_5_2">
<rect width="216" height="234" fill="white"/>
</clipPath>
</defs>
</svg>
